<svg xmlns="http://www.w3.org/2000/svg" xmlns:xlink="http://www.w3.org/1999/xlink" width="500" zoomAndPan="magnify" viewBox="0 0 375 374.999991" height="500" preserveAspectRatio="xMidYMid meet" version="1.0"><defs><g/><clipPath id="6aa59febd1"><path d="M 121.988281 96.890625 L 285.488281 96.890625 L 285.488281 243.140625 L 121.988281 243.140625 Z M 121.988281 96.890625 " clip-rule="nonzero"/></clipPath></defs><g clip-path="url(#6aa59febd1)"><path fill="#ffffff" d="M 196.023438 276.140625 C 146.644531 276.140625 106.429688 235.921875 106.429688 186.484375 C 106.429688 137.046875 146.644531 96.890625 196.023438 96.890625 C 245.402344 96.890625 285.617188 137.109375 285.617188 186.484375 C 285.679688 235.921875 245.460938 276.140625 196.023438 276.140625 Z M 196.023438 98.40625 C 147.433594 98.40625 107.945312 137.898438 107.945312 186.484375 C 107.945312 235.074219 147.496094 274.625 196.023438 274.625 C 244.550781 274.625 284.164062 235.074219 284.164062 186.484375 C 284.164062 137.898438 244.613281 98.40625 196.023438 98.40625 Z M 196.023438 98.40625 " fill-opacity="1" fill-rule="nonzero"/></g><g fill="#ffffff" fill-opacity="1"><g transform="translate(101.227256, 233.417322)"><g><path d="M 50.171875 -37.765625 C 50.554688 -37.378906 50.554688 -37.03125 50.171875 -36.71875 C 49.929688 -36.488281 49.539062 -36.296875 49 -36.140625 C 46.96875 -35.671875 45.40625 -35.394531 44.3125 -35.3125 C 42.601562 -35.15625 39.957031 -35 36.375 -34.84375 C 35.59375 -34.84375 33.5625 -34.765625 30.28125 -34.609375 C 30.050781 -33.597656 29.722656 -32.117188 29.296875 -30.171875 C 28.867188 -28.222656 28.535156 -26.738281 28.296875 -25.71875 C 27.359375 -22.0625 26.382812 -18.789062 25.375 -15.90625 C 23.96875 -12.238281 22.097656 -9.316406 19.765625 -7.140625 C 18.671875 -6.117188 17.460938 -5.257812 16.140625 -4.5625 C 15.203125 -4.09375 14.460938 -3.816406 13.921875 -3.734375 C 12.117188 -3.273438 10.554688 -3.53125 9.234375 -4.5 C 7.910156 -5.476562 7.285156 -6.941406 7.359375 -8.890625 C 7.359375 -11.066406 8.140625 -13.050781 9.703125 -14.84375 C 10.640625 -15.863281 11.691406 -16.21875 12.859375 -15.90625 C 13.015625 -15.90625 13.09375 -15.785156 13.09375 -15.546875 C 13.25 -15.234375 13.171875 -15.078125 12.859375 -15.078125 C 11.460938 -15.160156 10.332031 -14.34375 9.46875 -12.625 C 8.613281 -10.757812 8.457031 -9.125 9 -7.71875 C 9.625 -5.613281 11.03125 -4.832031 13.21875 -5.375 C 13.914062 -5.53125 14.890625 -6 16.140625 -6.78125 C 18.316406 -8.34375 20.1875 -10.601562 21.75 -13.5625 C 23 -16.0625 24.050781 -19.140625 24.90625 -22.796875 C 25.144531 -23.890625 25.554688 -25.757812 26.140625 -28.40625 C 26.722656 -31.0625 27.171875 -33.09375 27.484375 -34.5 C 24.828125 -34.34375 23.070312 -34.222656 22.21875 -34.140625 C 19.257812 -33.910156 16.101562 -33.367188 12.75 -32.515625 L 12.390625 -32.515625 C 12.078125 -32.515625 11.882812 -32.628906 11.8125 -32.859375 C 11.8125 -33.085938 11.890625 -33.203125 12.046875 -33.203125 C 12.429688 -33.515625 12.859375 -33.710938 13.328125 -33.796875 C 15.585938 -34.421875 18.082031 -34.925781 20.8125 -35.3125 C 21.976562 -35.394531 24.28125 -35.550781 27.71875 -35.78125 C 28.1875 -37.65625 28.5 -39.0625 28.65625 -40 C 31.53125 -53.945312 33.710938 -63.414062 35.203125 -68.40625 C 35.898438 -70.4375 36.441406 -72.226562 36.828125 -73.78125 C 37.066406 -74.175781 37.066406 -74.566406 36.828125 -74.953125 L 31.109375 -72.15625 C 28.765625 -71.0625 23.113281 -68.679688 14.15625 -65.015625 C 10.019531 -63.378906 6.625 -61.625 3.96875 -59.75 C 2.800781 -58.894531 2.179688 -58.15625 2.109375 -57.53125 C 2.109375 -57.457031 2.066406 -57.398438 1.984375 -57.359375 C 1.910156 -57.316406 1.832031 -57.335938 1.75 -57.421875 C 1.519531 -57.421875 1.40625 -57.5 1.40625 -57.65625 C 1.09375 -57.96875 1.050781 -58.316406 1.28125 -58.703125 C 1.59375 -59.328125 2.179688 -59.953125 3.046875 -60.578125 C 4.910156 -62.054688 7.09375 -63.378906 9.59375 -64.546875 C 10.445312 -64.941406 11.359375 -65.351562 12.328125 -65.78125 C 13.304688 -66.207031 14.398438 -66.671875 15.609375 -67.171875 C 16.816406 -67.679688 17.734375 -68.09375 18.359375 -68.40625 C 27.085938 -71.988281 32.46875 -74.289062 34.5 -75.3125 C 36.207031 -76.164062 37.335938 -76.828125 37.890625 -77.296875 C 38.203125 -77.523438 38.4375 -77.816406 38.59375 -78.171875 C 38.75 -78.523438 38.90625 -78.972656 39.0625 -79.515625 C 39.21875 -80.066406 39.332031 -80.457031 39.40625 -80.6875 C 40.726562 -83.414062 41.46875 -84.859375 41.625 -85.015625 C 42.40625 -86.109375 43.378906 -86.890625 44.546875 -87.359375 C 45.566406 -87.742188 46.191406 -87.390625 46.421875 -86.296875 C 46.660156 -85.515625 46.582031 -84.503906 46.1875 -83.265625 C 45.71875 -82.085938 44.976562 -80.992188 43.96875 -79.984375 C 43.1875 -79.203125 42.5625 -78.65625 42.09375 -78.34375 C 40.84375 -77.644531 40.023438 -76.476562 39.640625 -74.84375 C 38.234375 -70.164062 36.085938 -61.003906 33.203125 -47.359375 C 32.898438 -46.109375 32.453125 -44.21875 31.859375 -41.6875 C 31.273438 -39.15625 30.867188 -37.226562 30.640625 -35.90625 C 32.898438 -35.976562 34.648438 -35.992188 35.890625 -35.953125 C 37.140625 -35.921875 38.660156 -35.941406 40.453125 -36.015625 C 42.253906 -36.097656 44.476562 -36.332031 47.125 -36.71875 C 48.289062 -37.03125 49.03125 -37.421875 49.34375 -37.890625 C 49.582031 -38.117188 49.859375 -38.078125 50.171875 -37.765625 Z M 44.078125 -85.59375 C 42.679688 -84.195312 41.785156 -82.289062 41.390625 -79.875 C 41.390625 -79.71875 41.46875 -79.5625 41.625 -79.40625 C 41.863281 -79.632812 42.253906 -80.019531 42.796875 -80.5625 C 43.347656 -81.113281 43.773438 -81.546875 44.078125 -81.859375 C 45.097656 -83.023438 45.566406 -84.191406 45.484375 -85.359375 C 45.484375 -85.753906 45.40625 -85.988281 45.25 -86.0625 C 45.019531 -86.144531 44.75 -86.109375 44.4375 -85.953125 Z M 44.078125 -85.59375 "/></g></g></g><g fill="#ffffff" fill-opacity="1"><g transform="translate(149.285344, 233.417322)"><g><path d="M 3.15625 0.234375 C 2.6875 0.304688 2.296875 0.0703125 1.984375 -0.46875 C 1.753906 -1.09375 1.640625 -1.675781 1.640625 -2.21875 C 1.328125 -5.644531 1.171875 -8.21875 1.171875 -9.9375 C 1.796875 -17.8125 2.144531 -21.941406 2.21875 -22.328125 C 2.769531 -27.242188 3.472656 -32.351562 4.328125 -37.65625 L 7.484375 -55.78125 L 11.34375 -79.640625 C 11.414062 -80.179688 11.507812 -80.976562 11.625 -82.03125 C 11.75 -83.082031 11.847656 -83.878906 11.921875 -84.421875 C 11.921875 -84.890625 12.039062 -85.28125 12.28125 -85.59375 C 12.28125 -85.75 12.4375 -85.828125 12.75 -85.828125 C 12.976562 -85.828125 13.171875 -85.75 13.328125 -85.59375 C 13.640625 -85.050781 13.796875 -84.429688 13.796875 -83.734375 C 13.796875 -81.234375 13.757812 -79.359375 13.6875 -78.109375 C 13.132812 -71.410156 12.003906 -62.757812 10.296875 -52.15625 C 9.429688 -47.394531 8.765625 -43.492188 8.296875 -40.453125 C 8.140625 -39.679688 8.0625 -39.0625 8.0625 -38.59375 C 7.988281 -38.351562 8.03125 -38.191406 8.1875 -38.109375 C 8.34375 -38.035156 8.535156 -38 8.765625 -38 C 9.628906 -38.15625 10.097656 -38.585938 10.171875 -39.296875 L 11.921875 -46.3125 C 14.179688 -54.1875 16.210938 -60.070312 18.015625 -63.96875 C 19.253906 -66.769531 20.769531 -69.5 22.5625 -72.15625 C 24.820312 -75.425781 27.628906 -78.113281 30.984375 -80.21875 C 32.078125 -80.84375 32.894531 -81.269531 33.4375 -81.5 C 36.007812 -82.363281 37.882812 -81.546875 39.0625 -79.046875 C 39.6875 -77.566406 40 -76.046875 40 -74.484375 C 40.226562 -71.367188 39.679688 -67.941406 38.359375 -64.203125 C 36.722656 -60.066406 34.925781 -56.363281 32.96875 -53.09375 C 29.15625 -46.382812 23.546875 -41.664062 16.140625 -38.9375 C 15.429688 -38.707031 13.867188 -38.203125 11.453125 -37.421875 C 10.835938 -37.179688 10.488281 -36.832031 10.40625 -36.375 C 10.40625 -36.21875 10.363281 -36.039062 10.28125 -35.84375 C 10.207031 -35.644531 10.171875 -35.507812 10.171875 -35.4375 C 10.015625 -34.1875 9.957031 -33.484375 10 -33.328125 C 10.039062 -33.171875 10.488281 -32.742188 11.34375 -32.046875 L 18.46875 -25.953125 C 19.875 -24.710938 21.160156 -23.738281 22.328125 -23.03125 C 25.296875 -21.394531 28.300781 -21.125 31.34375 -22.21875 C 32.425781 -22.53125 33.90625 -23.234375 35.78125 -24.328125 C 36.019531 -24.484375 36.585938 -24.867188 37.484375 -25.484375 C 38.378906 -26.109375 39.0625 -26.617188 39.53125 -27.015625 C 41.238281 -28.335938 43.671875 -30.285156 46.828125 -32.859375 C 49.984375 -35.429688 51.796875 -36.910156 52.265625 -37.296875 C 52.503906 -37.535156 52.703125 -37.535156 52.859375 -37.296875 C 53.015625 -37.140625 53.015625 -36.984375 52.859375 -36.828125 C 52.617188 -36.523438 52.1875 -36.0625 51.5625 -35.4375 C 51.175781 -35.125 49.484375 -33.71875 46.484375 -31.21875 C 43.484375 -28.726562 41.164062 -26.820312 39.53125 -25.5 C 37.113281 -23.539062 34.539062 -22.054688 31.8125 -21.046875 C 28.0625 -19.640625 24.515625 -20.03125 21.171875 -22.21875 C 19.609375 -23.3125 18.476562 -24.171875 17.78125 -24.796875 C 17.15625 -25.265625 16.507812 -25.789062 15.84375 -26.375 C 15.175781 -26.957031 14.453125 -27.617188 13.671875 -28.359375 C 12.898438 -29.097656 12.28125 -29.660156 11.8125 -30.046875 L 10.171875 -31.34375 C 9.703125 -31.65625 9.390625 -31.535156 9.234375 -30.984375 C 9.234375 -30.671875 9.195312 -30.4375 9.125 -30.28125 C 7.5625 -22.332031 6.3125 -15.203125 5.375 -8.890625 C 5.144531 -7.253906 4.71875 -4.796875 4.09375 -1.515625 C 4.09375 -1.441406 4.070312 -1.285156 4.03125 -1.046875 C 3.988281 -0.816406 3.929688 -0.660156 3.859375 -0.578125 C 3.773438 -0.191406 3.539062 0.078125 3.15625 0.234375 Z M 11.8125 -38.9375 C 12.664062 -39.175781 14.5 -39.835938 17.3125 -40.921875 C 22.84375 -43.335938 27.363281 -47.082031 30.875 -52.15625 C 33.289062 -55.738281 35.507812 -60.179688 37.53125 -65.484375 C 38.3125 -67.671875 38.78125 -70.242188 38.9375 -73.203125 C 38.9375 -74.835938 38.78125 -76.238281 38.46875 -77.40625 C 38.238281 -78.1875 37.925781 -78.8125 37.53125 -79.28125 C 36.90625 -80.445312 35.851562 -80.914062 34.375 -80.6875 C 33.519531 -80.457031 32.585938 -80.03125 31.578125 -79.40625 C 29.003906 -77.84375 26.703125 -75.8125 24.671875 -73.3125 C 22.878906 -71.050781 21.203125 -68.328125 19.640625 -65.140625 C 17.617188 -61.003906 15.710938 -55.894531 13.921875 -49.8125 C 13.523438 -48.5625 12.992188 -46.707031 12.328125 -44.25 C 11.671875 -41.800781 11.265625 -40.304688 11.109375 -39.765625 C 11.023438 -39.453125 11.039062 -39.21875 11.15625 -39.0625 C 11.28125 -38.90625 11.5 -38.863281 11.8125 -38.9375 Z M 8.765625 -34.265625 L 9.125 -34.5 C 9.195312 -34.882812 9.3125 -35.390625 9.46875 -36.015625 C 9.550781 -36.253906 9.492188 -36.429688 9.296875 -36.546875 C 9.097656 -36.660156 8.921875 -36.675781 8.765625 -36.59375 C 8.222656 -36.445312 7.910156 -36.253906 7.828125 -36.015625 C 7.597656 -35.628906 7.5625 -35.28125 7.71875 -34.96875 C 7.945312 -34.570312 8.296875 -34.335938 8.765625 -34.265625 Z M 5.265625 -14.390625 C 5.421875 -15.003906 5.632812 -16.070312 5.90625 -17.59375 C 6.175781 -19.113281 6.390625 -20.265625 6.546875 -21.046875 C 6.785156 -22.296875 7.117188 -24.066406 7.546875 -26.359375 C 7.972656 -28.660156 8.300781 -30.320312 8.53125 -31.34375 C 8.6875 -31.882812 8.707031 -32.253906 8.59375 -32.453125 C 8.476562 -32.648438 8.109375 -32.898438 7.484375 -33.203125 C 7.328125 -33.046875 7.25 -32.929688 7.25 -32.859375 L 6.90625 -31.6875 C 6.75 -29.894531 6.453125 -27.242188 6.015625 -23.734375 C 5.585938 -20.222656 5.257812 -17.613281 5.03125 -15.90625 L 5.03125 -14.609375 L 5.140625 -14.609375 Z M 5.265625 -14.390625 "/></g></g></g><g fill="#ffffff" fill-opacity="1"><g transform="translate(199.915879, 233.417322)"><g><path d="M 50.171875 -37.765625 C 50.554688 -37.378906 50.554688 -37.03125 50.171875 -36.71875 C 49.929688 -36.488281 49.539062 -36.296875 49 -36.140625 C 46.96875 -35.671875 45.40625 -35.394531 44.3125 -35.3125 C 42.601562 -35.15625 39.957031 -35 36.375 -34.84375 C 35.59375 -34.84375 33.5625 -34.765625 30.28125 -34.609375 C 30.050781 -33.597656 29.722656 -32.117188 29.296875 -30.171875 C 28.867188 -28.222656 28.535156 -26.738281 28.296875 -25.71875 C 27.359375 -22.0625 26.382812 -18.789062 25.375 -15.90625 C 23.96875 -12.238281 22.097656 -9.316406 19.765625 -7.140625 C 18.671875 -6.117188 17.460938 -5.257812 16.140625 -4.5625 C 15.203125 -4.09375 14.460938 -3.816406 13.921875 -3.734375 C 12.117188 -3.273438 10.554688 -3.53125 9.234375 -4.5 C 7.910156 -5.476562 7.285156 -6.941406 7.359375 -8.890625 C 7.359375 -11.066406 8.140625 -13.050781 9.703125 -14.84375 C 10.640625 -15.863281 11.691406 -16.21875 12.859375 -15.90625 C 13.015625 -15.90625 13.09375 -15.785156 13.09375 -15.546875 C 13.25 -15.234375 13.171875 -15.078125 12.859375 -15.078125 C 11.460938 -15.160156 10.332031 -14.34375 9.46875 -12.625 C 8.613281 -10.757812 8.457031 -9.125 9 -7.71875 C 9.625 -5.613281 11.03125 -4.832031 13.21875 -5.375 C 13.914062 -5.53125 14.890625 -6 16.140625 -6.78125 C 18.316406 -8.34375 20.1875 -10.601562 21.75 -13.5625 C 23 -16.0625 24.050781 -19.140625 24.90625 -22.796875 C 25.144531 -23.890625 25.554688 -25.757812 26.140625 -28.40625 C 26.722656 -31.0625 27.171875 -33.09375 27.484375 -34.5 C 24.828125 -34.34375 23.070312 -34.222656 22.21875 -34.140625 C 19.257812 -33.910156 16.101562 -33.367188 12.75 -32.515625 L 12.390625 -32.515625 C 12.078125 -32.515625 11.882812 -32.628906 11.8125 -32.859375 C 11.8125 -33.085938 11.890625 -33.203125 12.046875 -33.203125 C 12.429688 -33.515625 12.859375 -33.710938 13.328125 -33.796875 C 15.585938 -34.421875 18.082031 -34.925781 20.8125 -35.3125 C 21.976562 -35.394531 24.28125 -35.550781 27.71875 -35.78125 C 28.1875 -37.65625 28.5 -39.0625 28.65625 -40 C 31.53125 -53.945312 33.710938 -63.414062 35.203125 -68.40625 C 35.898438 -70.4375 36.441406 -72.226562 36.828125 -73.78125 C 37.066406 -74.175781 37.066406 -74.566406 36.828125 -74.953125 L 31.109375 -72.15625 C 28.765625 -71.0625 23.113281 -68.679688 14.15625 -65.015625 C 10.019531 -63.378906 6.625 -61.625 3.96875 -59.75 C 2.800781 -58.894531 2.179688 -58.15625 2.109375 -57.53125 C 2.109375 -57.457031 2.066406 -57.398438 1.984375 -57.359375 C 1.910156 -57.316406 1.832031 -57.335938 1.75 -57.421875 C 1.519531 -57.421875 1.40625 -57.5 1.40625 -57.65625 C 1.09375 -57.96875 1.050781 -58.316406 1.28125 -58.703125 C 1.59375 -59.328125 2.179688 -59.953125 3.046875 -60.578125 C 4.910156 -62.054688 7.09375 -63.378906 9.59375 -64.546875 C 10.445312 -64.941406 11.359375 -65.351562 12.328125 -65.78125 C 13.304688 -66.207031 14.398438 -66.671875 15.609375 -67.171875 C 16.816406 -67.679688 17.734375 -68.09375 18.359375 -68.40625 C 27.085938 -71.988281 32.46875 -74.289062 34.5 -75.3125 C 36.207031 -76.164062 37.335938 -76.828125 37.890625 -77.296875 C 38.203125 -77.523438 38.4375 -77.816406 38.59375 -78.171875 C 38.75 -78.523438 38.90625 -78.972656 39.0625 -79.515625 C 39.21875 -80.066406 39.332031 -80.457031 39.40625 -80.6875 C 40.726562 -83.414062 41.46875 -84.859375 41.625 -85.015625 C 42.40625 -86.109375 43.378906 -86.890625 44.546875 -87.359375 C 45.566406 -87.742188 46.191406 -87.390625 46.421875 -86.296875 C 46.660156 -85.515625 46.582031 -84.503906 46.1875 -83.265625 C 45.71875 -82.085938 44.976562 -80.992188 43.96875 -79.984375 C 43.1875 -79.203125 42.5625 -78.65625 42.09375 -78.34375 C 40.84375 -77.644531 40.023438 -76.476562 39.640625 -74.84375 C 38.234375 -70.164062 36.085938 -61.003906 33.203125 -47.359375 C 32.898438 -46.109375 32.453125 -44.21875 31.859375 -41.6875 C 31.273438 -39.15625 30.867188 -37.226562 30.640625 -35.90625 C 32.898438 -35.976562 34.648438 -35.992188 35.890625 -35.953125 C 37.140625 -35.921875 38.660156 -35.941406 40.453125 -36.015625 C 42.253906 -36.097656 44.476562 -36.332031 47.125 -36.71875 C 48.289062 -37.03125 49.03125 -37.421875 49.34375 -37.890625 C 49.582031 -38.117188 49.859375 -38.078125 50.171875 -37.765625 Z M 44.078125 -85.59375 C 42.679688 -84.195312 41.785156 -82.289062 41.390625 -79.875 C 41.390625 -79.71875 41.46875 -79.5625 41.625 -79.40625 C 41.863281 -79.632812 42.253906 -80.019531 42.796875 -80.5625 C 43.347656 -81.113281 43.773438 -81.546875 44.078125 -81.859375 C 45.097656 -83.023438 45.566406 -84.191406 45.484375 -85.359375 C 45.484375 -85.753906 45.40625 -85.988281 45.25 -86.0625 C 45.019531 -86.144531 44.75 -86.109375 44.4375 -85.953125 Z M 44.078125 -85.59375 "/></g></g></g><g fill="#ffffff" fill-opacity="1"><g transform="translate(136.75273, 254.231244)"><g><path d="M 10.6875 0.1875 L 10.640625 0.15625 C 10.460938 0.03125 10.257812 -0.015625 10.03125 0.015625 C 9.90625 0.0351562 9.789062 0.0820312 9.6875 0.15625 L 5.75 3.09375 C 5.445312 3.320312 5.207031 3.550781 5.03125 3.78125 L 4.96875 3.734375 L 6.46875 -1.4375 L 2.984375 1.078125 C 2.671875 1.304688 2.425781 1.535156 2.25 1.765625 L 2.1875 1.71875 L 3.90625 -4.046875 C 3.945312 -4.234375 3.929688 -4.40625 3.859375 -4.5625 C 3.796875 -4.726562 3.703125 -4.859375 3.578125 -4.953125 L 3.515625 -5 L 3.5625 -5.0625 L 5.15625 -3.90625 L 5.109375 -3.84375 L 5.046875 -3.890625 C 4.941406 -3.960938 4.84375 -3.984375 4.75 -3.953125 C 4.65625 -3.921875 4.585938 -3.875 4.546875 -3.8125 C 4.503906 -3.757812 4.472656 -3.703125 4.453125 -3.640625 L 3.015625 0.625 L 7.3125 -2.515625 L 7.375 -2.46875 L 5.9375 2.515625 L 9.3125 -0.140625 C 9.363281 -0.179688 9.40625 -0.226562 9.4375 -0.28125 C 9.476562 -0.34375 9.5 -0.421875 9.5 -0.515625 C 9.5 -0.617188 9.445312 -0.707031 9.34375 -0.78125 L 9.28125 -0.828125 L 9.328125 -0.890625 L 10.734375 0.125 Z M 10.6875 0.1875 "/></g></g></g><g fill="#ffffff" fill-opacity="1"><g transform="translate(147.657665, 261.652354)"><g><path d="M 0.609375 0.234375 C 0.742188 0.304688 0.882812 0.316406 1.03125 0.265625 C 1.175781 0.222656 1.289062 0.144531 1.375 0.03125 L 3.765625 -4.296875 C 3.816406 -4.429688 3.816406 -4.566406 3.765625 -4.703125 C 3.722656 -4.847656 3.640625 -4.957031 3.515625 -5.03125 L 3.4375 -5.078125 L 3.46875 -5.15625 L 5.734375 -3.890625 C 5.890625 -3.804688 6.070312 -3.726562 6.28125 -3.65625 C 6.488281 -3.582031 6.640625 -3.539062 6.734375 -3.53125 L 6.1875 -2.5625 L 6.09375 -2.609375 L 6.171875 -2.75 C 6.242188 -2.875 6.265625 -3 6.234375 -3.125 C 6.203125 -3.257812 6.128906 -3.367188 6.015625 -3.453125 L 4.4375 -4.328125 L 3.109375 -1.921875 L 4.421875 -1.1875 C 4.515625 -1.132812 4.617188 -1.125 4.734375 -1.15625 C 4.847656 -1.1875 4.929688 -1.257812 4.984375 -1.375 L 5.046875 -1.484375 L 5.140625 -1.4375 L 4.46875 -0.21875 L 4.375 -0.265625 L 4.4375 -0.375 C 4.488281 -0.476562 4.5 -0.582031 4.46875 -0.6875 C 4.445312 -0.800781 4.394531 -0.894531 4.3125 -0.96875 L 2.984375 -1.703125 L 1.703125 0.609375 L 2.8125 1.21875 C 3.1875 1.4375 3.519531 1.515625 3.8125 1.453125 C 4.113281 1.398438 4.425781 1.242188 4.75 0.984375 L 4.828125 1.03125 L 3.671875 2.03125 L 0.46875 0.25 L 0.515625 0.171875 Z M 0.609375 0.234375 "/></g></g></g><g fill="#ffffff" fill-opacity="1"><g transform="translate(156.138344, 266.093833)"><g><path d="M 2.46875 1.0625 L 0.484375 0.203125 L 0.53125 0.125 L 0.625 0.15625 C 0.757812 0.21875 0.898438 0.222656 1.046875 0.171875 C 1.191406 0.117188 1.300781 0.0234375 1.375 -0.109375 L 3.3125 -4.609375 C 3.375 -4.753906 3.367188 -4.898438 3.296875 -5.046875 C 3.234375 -5.191406 3.132812 -5.296875 3 -5.359375 L 2.90625 -5.390625 L 2.921875 -5.484375 L 4.546875 -4.78125 C 5.097656 -4.539062 5.472656 -4.234375 5.671875 -3.859375 C 5.878906 -3.484375 5.894531 -3.09375 5.71875 -2.6875 C 5.570312 -2.351562 5.367188 -2.113281 5.109375 -1.96875 C 4.847656 -1.832031 4.578125 -1.789062 4.296875 -1.84375 C 4.703125 -1.582031 4.96875 -1.253906 5.09375 -0.859375 C 5.21875 -0.460938 5.1875 -0.046875 5 0.390625 C 4.8125 0.828125 4.488281 1.109375 4.03125 1.234375 C 3.582031 1.367188 3.0625 1.3125 2.46875 1.0625 Z M 1.765625 0.421875 L 2.5625 0.765625 C 2.5625 0.765625 2.566406 0.765625 2.578125 0.765625 C 2.992188 0.941406 3.359375 0.960938 3.671875 0.828125 C 3.992188 0.703125 4.242188 0.4375 4.421875 0.03125 C 4.523438 -0.207031 4.570312 -0.429688 4.5625 -0.640625 C 4.5625 -0.847656 4.53125 -1.023438 4.46875 -1.171875 C 4.257812 -1.566406 3.835938 -1.898438 3.203125 -2.171875 L 3.25 -2.265625 C 3.25 -2.265625 3.269531 -2.253906 3.3125 -2.234375 C 3.363281 -2.210938 3.429688 -2.1875 3.515625 -2.15625 C 3.609375 -2.125 3.710938 -2.097656 3.828125 -2.078125 C 3.953125 -2.054688 4.070312 -2.054688 4.1875 -2.078125 C 4.300781 -2.109375 4.414062 -2.144531 4.53125 -2.1875 C 4.757812 -2.3125 4.945312 -2.550781 5.09375 -2.90625 C 5.25 -3.257812 5.269531 -3.578125 5.15625 -3.859375 C 5.039062 -4.140625 4.785156 -4.363281 4.390625 -4.53125 L 3.96875 -4.71875 Z M 1.765625 0.421875 "/></g></g></g><g fill="#ffffff" fill-opacity="1"><g transform="translate(165.077818, 269.644136)"><g/></g></g><g fill="#ffffff" fill-opacity="1"><g transform="translate(171.44629, 271.64455)"><g><path d="M 4.796875 -5.25 C 5.710938 -5.039062 6.394531 -4.59375 6.84375 -3.90625 C 7.289062 -3.226562 7.410156 -2.4375 7.203125 -1.53125 C 7.003906 -0.625 6.554688 0.0351562 5.859375 0.453125 C 5.160156 0.878906 4.351562 0.988281 3.4375 0.78125 L 0.515625 0.109375 L 0.53125 0.015625 L 0.640625 0.046875 C 0.796875 0.078125 0.9375 0.0546875 1.0625 -0.015625 C 1.195312 -0.0976562 1.285156 -0.210938 1.328125 -0.359375 L 2.421875 -5.1875 C 2.453125 -5.332031 2.421875 -5.460938 2.328125 -5.578125 C 2.234375 -5.703125 2.113281 -5.78125 1.96875 -5.8125 L 1.875 -5.828125 L 1.875 -5.921875 Z M 3.046875 -5.390625 L 1.796875 0.125 L 3.5 0.515625 C 3.976562 0.617188 4.425781 0.597656 4.84375 0.453125 C 5.269531 0.316406 5.632812 0.0664062 5.9375 -0.296875 C 6.238281 -0.671875 6.453125 -1.132812 6.578125 -1.6875 C 6.765625 -2.519531 6.691406 -3.238281 6.359375 -3.84375 C 6.023438 -4.445312 5.488281 -4.832031 4.75 -5 Z M 3.046875 -5.390625 "/></g></g></g><g fill="#ffffff" fill-opacity="1"><g transform="translate(182.851843, 273.904612)"><g><path d="M 0.65625 -0.015625 C 0.8125 -0.00390625 0.945312 -0.046875 1.0625 -0.140625 C 1.1875 -0.242188 1.265625 -0.363281 1.296875 -0.5 L 1.828125 -5.421875 C 1.828125 -5.578125 1.773438 -5.707031 1.671875 -5.8125 C 1.578125 -5.925781 1.457031 -5.988281 1.3125 -6 L 1.21875 -6.015625 L 1.21875 -6.09375 L 3.796875 -5.8125 C 3.972656 -5.789062 4.164062 -5.785156 4.375 -5.796875 C 4.59375 -5.816406 4.75 -5.835938 4.84375 -5.859375 L 4.71875 -4.75 L 4.625 -4.75 L 4.640625 -4.90625 C 4.648438 -5.050781 4.617188 -5.175781 4.546875 -5.28125 C 4.472656 -5.394531 4.367188 -5.46875 4.234375 -5.5 L 2.421875 -5.6875 L 2.109375 -2.96875 L 3.609375 -2.8125 C 3.722656 -2.800781 3.828125 -2.832031 3.921875 -2.90625 C 4.015625 -2.976562 4.070312 -3.078125 4.09375 -3.203125 L 4.09375 -3.328125 L 4.1875 -3.3125 L 4.046875 -1.921875 L 3.953125 -1.9375 L 3.953125 -2.0625 C 3.972656 -2.175781 3.945312 -2.28125 3.875 -2.375 C 3.800781 -2.46875 3.710938 -2.523438 3.609375 -2.546875 L 2.09375 -2.703125 L 1.796875 -0.078125 L 3.0625 0.046875 C 3.5 0.0976562 3.835938 0.0390625 4.078125 -0.125 C 4.328125 -0.289062 4.550781 -0.550781 4.75 -0.90625 L 4.84375 -0.90625 L 4.171875 0.46875 L 0.53125 0.0625 L 0.546875 -0.03125 Z M 0.65625 -0.015625 "/></g></g></g><g fill="#ffffff" fill-opacity="1"><g transform="translate(192.404305, 274.755717)"><g><path d="M 6.65625 -6.09375 L 6.578125 -6.09375 C 6.378906 -6.09375 6.195312 -6.007812 6.03125 -5.84375 C 5.9375 -5.757812 5.859375 -5.65625 5.796875 -5.53125 L 3.671875 -0.78125 C 3.453125 -0.3125 3.34375 -0.0078125 3.34375 0.125 L 3.265625 0.125 L 0.78125 -5.546875 C 0.707031 -5.734375 0.597656 -5.875 0.453125 -5.96875 C 0.304688 -6.0625 0.160156 -6.109375 0.015625 -6.109375 L -0.0625 -6.109375 L -0.0625 -6.1875 L 1.9375 -6.1875 L 1.9375 -6.109375 L 1.859375 -6.109375 C 1.679688 -6.109375 1.5625 -6.023438 1.5 -5.859375 C 1.488281 -5.816406 1.476562 -5.769531 1.46875 -5.71875 C 1.46875 -5.675781 1.484375 -5.617188 1.515625 -5.546875 L 3.359375 -0.921875 L 5.28125 -5.546875 C 5.3125 -5.617188 5.328125 -5.6875 5.328125 -5.75 C 5.335938 -5.820312 5.3125 -5.898438 5.25 -5.984375 C 5.1875 -6.066406 5.09375 -6.109375 4.96875 -6.109375 L 4.890625 -6.109375 L 4.890625 -6.1875 L 6.65625 -6.171875 Z M 6.65625 -6.09375 "/></g></g></g><g fill="#ffffff" fill-opacity="1"><g transform="translate(203.429875, 274.488191)"><g><path d="M 0.625 -0.15625 C 0.78125 -0.175781 0.90625 -0.242188 1 -0.359375 C 1.101562 -0.484375 1.15625 -0.617188 1.15625 -0.765625 L 0.625 -5.6875 C 0.582031 -5.832031 0.5 -5.945312 0.375 -6.03125 C 0.257812 -6.125 0.128906 -6.160156 -0.015625 -6.140625 L -0.109375 -6.140625 L -0.125 -6.21875 L 2.453125 -6.484375 C 2.628906 -6.503906 2.820312 -6.546875 3.03125 -6.609375 C 3.25 -6.671875 3.390625 -6.722656 3.453125 -6.765625 L 3.578125 -5.65625 L 3.484375 -5.640625 L 3.46875 -5.796875 C 3.457031 -5.941406 3.398438 -6.054688 3.296875 -6.140625 C 3.191406 -6.234375 3.070312 -6.28125 2.9375 -6.28125 L 1.125 -6.078125 L 1.421875 -3.359375 L 2.921875 -3.53125 C 3.035156 -3.539062 3.128906 -3.585938 3.203125 -3.671875 C 3.273438 -3.765625 3.304688 -3.875 3.296875 -4 L 3.28125 -4.125 L 3.375 -4.140625 L 3.53125 -2.75 L 3.4375 -2.734375 L 3.421875 -2.859375 C 3.410156 -2.972656 3.359375 -3.066406 3.265625 -3.140625 C 3.179688 -3.222656 3.082031 -3.265625 2.96875 -3.265625 L 1.453125 -3.09375 L 1.734375 -0.46875 L 3 -0.609375 C 3.4375 -0.648438 3.753906 -0.78125 3.953125 -1 C 4.160156 -1.21875 4.320312 -1.523438 4.4375 -1.921875 L 4.53125 -1.921875 L 4.171875 -0.453125 L 0.53125 -0.0625 L 0.515625 -0.15625 Z M 0.625 -0.15625 "/></g></g></g><g fill="#ffffff" fill-opacity="1"><g transform="translate(212.91844, 273.236116)"><g><path d="M 0.609375 -0.21875 C 0.765625 -0.257812 0.878906 -0.34375 0.953125 -0.46875 C 1.035156 -0.59375 1.070312 -0.726562 1.0625 -0.875 L 0.046875 -5.671875 C 0.00390625 -5.828125 -0.078125 -5.945312 -0.203125 -6.03125 C -0.335938 -6.125 -0.484375 -6.148438 -0.640625 -6.109375 L -0.75 -6.09375 L -0.765625 -6.15625 L 1.140625 -6.5625 L 1.15625 -6.5 L 1.046875 -6.46875 C 0.828125 -6.425781 0.679688 -6.300781 0.609375 -6.09375 C 0.585938 -6 0.585938 -5.898438 0.609375 -5.796875 L 1.6875 -0.65625 L 2.921875 -0.90625 C 3.347656 -1 3.65625 -1.160156 3.84375 -1.390625 C 4.03125 -1.628906 4.160156 -1.953125 4.234375 -2.359375 L 4.328125 -2.375 L 4.109375 -0.859375 L 0.515625 -0.109375 L 0.5 -0.203125 Z M 0.609375 -0.21875 "/></g></g></g><g fill="#ffffff" fill-opacity="1"><g transform="translate(222.142408, 271.103304)"><g><path d="M -0.28125 -5.609375 C 0.0820312 -6.359375 0.710938 -6.878906 1.609375 -7.171875 C 2.503906 -7.472656 3.328125 -7.4375 4.078125 -7.0625 C 4.828125 -6.6875 5.351562 -6.046875 5.65625 -5.140625 C 5.957031 -4.234375 5.921875 -3.398438 5.546875 -2.640625 C 5.171875 -1.890625 4.535156 -1.363281 3.640625 -1.0625 C 2.742188 -0.769531 1.925781 -0.816406 1.1875 -1.203125 C 0.445312 -1.585938 -0.0703125 -2.234375 -0.375 -3.140625 C -0.675781 -4.046875 -0.644531 -4.867188 -0.28125 -5.609375 Z M 1.578125 -1.53125 C 2.179688 -1.164062 2.835938 -1.097656 3.546875 -1.328125 C 4.265625 -1.566406 4.753906 -2.015625 5.015625 -2.671875 C 5.273438 -3.328125 5.269531 -4.078125 5 -4.921875 C 4.8125 -5.472656 4.550781 -5.925781 4.21875 -6.28125 C 3.882812 -6.644531 3.492188 -6.878906 3.046875 -6.984375 C 2.609375 -7.097656 2.160156 -7.082031 1.703125 -6.9375 C 0.984375 -6.695312 0.492188 -6.25 0.234375 -5.59375 C -0.0234375 -4.9375 -0.0195312 -4.1875 0.25 -3.34375 C 0.53125 -2.5 0.972656 -1.894531 1.578125 -1.53125 Z M 1.578125 -1.53125 "/></g></g></g><g fill="#ffffff" fill-opacity="1"><g transform="translate(233.335823, 267.051499)"><g><path d="M 2.328125 -6.015625 C 2.441406 -5.785156 2.5 -5.550781 2.5 -5.3125 C 2.5 -4.832031 2.304688 -4.421875 1.921875 -4.078125 C 1.804688 -3.953125 1.691406 -3.863281 1.578125 -3.8125 C 1.242188 -3.65625 0.929688 -3.582031 0.640625 -3.59375 L 0.609375 -3.6875 C 1.035156 -3.78125 1.375 -3.988281 1.625 -4.3125 C 1.851562 -4.582031 1.9375 -4.921875 1.875 -5.328125 C 1.851562 -5.453125 1.820312 -5.5625 1.78125 -5.65625 C 1.738281 -5.75 1.710938 -5.8125 1.703125 -5.84375 C 1.515625 -6.195312 1.273438 -6.441406 0.984375 -6.578125 C 0.703125 -6.710938 0.390625 -6.703125 0.046875 -6.546875 L -0.875 -6.125 L 1.34375 -1.328125 C 1.414062 -1.191406 1.519531 -1.097656 1.65625 -1.046875 C 1.800781 -0.992188 1.945312 -1 2.09375 -1.0625 L 2.1875 -1.109375 L 2.234375 -1.03125 L 0.484375 -0.21875 L 0.4375 -0.296875 L 0.53125 -0.34375 C 0.675781 -0.414062 0.773438 -0.519531 0.828125 -0.65625 C 0.890625 -0.800781 0.894531 -0.945312 0.84375 -1.09375 L -1.25 -5.59375 C -1.320312 -5.71875 -1.425781 -5.800781 -1.5625 -5.84375 C -1.707031 -5.882812 -1.847656 -5.875 -1.984375 -5.8125 L -2.0625 -5.78125 L -2.125 -5.828125 L -0.03125 -6.8125 C 0.476562 -7.039062 0.941406 -7.085938 1.359375 -6.953125 C 1.785156 -6.816406 2.109375 -6.503906 2.328125 -6.015625 Z M 2.328125 -6.015625 "/></g></g></g><g fill="#ffffff" fill-opacity="1"><g transform="translate(241.923732, 262.823174)"><g><path d="M 0.5 -0.40625 C 0.632812 -0.488281 0.71875 -0.601562 0.75 -0.75 C 0.789062 -0.894531 0.78125 -1.035156 0.71875 -1.171875 L -1.8125 -5.4375 C -1.90625 -5.550781 -2.019531 -5.617188 -2.15625 -5.640625 C -2.300781 -5.671875 -2.4375 -5.648438 -2.5625 -5.578125 L -2.640625 -5.53125 L -2.703125 -5.59375 L -0.46875 -6.921875 C -0.3125 -7.015625 -0.148438 -7.128906 0.015625 -7.265625 C 0.191406 -7.410156 0.304688 -7.515625 0.359375 -7.578125 L 0.921875 -6.625 L 0.84375 -6.578125 L 0.765625 -6.71875 C 0.691406 -6.84375 0.585938 -6.921875 0.453125 -6.953125 C 0.316406 -6.992188 0.191406 -6.984375 0.078125 -6.921875 L -1.484375 -6 L -0.09375 -3.640625 L 1.203125 -4.40625 C 1.296875 -4.46875 1.359375 -4.554688 1.390625 -4.671875 C 1.421875 -4.785156 1.40625 -4.898438 1.34375 -5.015625 L 1.28125 -5.109375 L 1.359375 -5.15625 L 2.0625 -3.96875 L 1.984375 -3.921875 L 1.921875 -4.03125 C 1.859375 -4.125 1.769531 -4.1875 1.65625 -4.21875 C 1.550781 -4.25 1.453125 -4.242188 1.359375 -4.203125 L 0.046875 -3.421875 L 1.390625 -1.140625 L 2.484375 -1.78125 C 2.859375 -2.007812 3.09375 -2.265625 3.1875 -2.546875 C 3.289062 -2.828125 3.3125 -3.175781 3.25 -3.59375 L 3.328125 -3.640625 L 3.609375 -2.140625 L 0.453125 -0.265625 L 0.40625 -0.34375 Z M 0.5 -0.40625 "/></g></g></g><g fill="#ffffff" fill-opacity="1"><g transform="translate(250.056329, 257.752253)"><g><path d="M -1.65625 -6.15625 L -2.125 -5.8125 L 1.03125 -1.578125 C 1.125 -1.460938 1.242188 -1.394531 1.390625 -1.375 C 1.546875 -1.351562 1.691406 -1.390625 1.828125 -1.484375 L 1.90625 -1.546875 L 1.984375 -1.46875 L 0.421875 -0.3125 L 0.359375 -0.390625 L 0.453125 -0.46875 C 0.578125 -0.550781 0.648438 -0.664062 0.671875 -0.8125 C 0.703125 -0.96875 0.675781 -1.113281 0.59375 -1.25 L -2.328125 -5.1875 C -2.429688 -5.300781 -2.5625 -5.363281 -2.71875 -5.375 C -2.875 -5.394531 -3.015625 -5.363281 -3.140625 -5.28125 L -3.234375 -5.203125 L -3.28125 -5.265625 L -1.359375 -6.703125 C -0.929688 -7.015625 -0.503906 -7.144531 -0.078125 -7.09375 C 0.335938 -7.050781 0.6875 -6.835938 0.96875 -6.453125 C 1.257812 -6.078125 1.390625 -5.660156 1.359375 -5.203125 C 1.328125 -4.753906 1.144531 -4.40625 0.8125 -4.15625 C 0.914062 -4.175781 1.050781 -4.171875 1.21875 -4.140625 C 1.382812 -4.117188 1.546875 -4.085938 1.703125 -4.046875 C 2.535156 -3.753906 3.066406 -3.585938 3.296875 -3.546875 C 3.523438 -3.503906 3.679688 -3.472656 3.765625 -3.453125 C 3.847656 -3.441406 3.9375 -3.4375 4.03125 -3.4375 C 4.132812 -3.445312 4.226562 -3.460938 4.3125 -3.484375 C 4.488281 -3.523438 4.65625 -3.601562 4.8125 -3.71875 L 4.875 -3.640625 L 4.484375 -3.34375 C 4.285156 -3.195312 4.066406 -3.09375 3.828125 -3.03125 C 3.597656 -2.976562 3.410156 -2.957031 3.265625 -2.96875 C 3.117188 -2.976562 2.988281 -2.992188 2.875 -3.015625 C 2.757812 -3.046875 2.40625 -3.160156 1.8125 -3.359375 C 1.21875 -3.566406 0.867188 -3.679688 0.765625 -3.703125 C 0.671875 -3.734375 0.578125 -3.75 0.484375 -3.75 C 0.210938 -3.8125 0.00390625 -3.789062 -0.140625 -3.6875 L -0.1875 -3.75 C -0.144531 -3.769531 -0.09375 -3.800781 -0.03125 -3.84375 C 0.0195312 -3.894531 0.09375 -3.953125 0.1875 -4.015625 C 0.757812 -4.460938 0.941406 -4.984375 0.734375 -5.578125 C 0.691406 -5.691406 0.640625 -5.789062 0.578125 -5.875 C 0.515625 -5.957031 0.472656 -6.007812 0.453125 -6.03125 C 0.222656 -6.351562 -0.0390625 -6.546875 -0.34375 -6.609375 C -0.65625 -6.679688 -0.945312 -6.632812 -1.21875 -6.46875 C -1.34375 -6.382812 -1.488281 -6.28125 -1.65625 -6.15625 Z M -1.65625 -6.15625 "/></g></g></g></svg>